<?xml version="1.0" encoding="UTF-8" standalone="no"?>
<!DOCTYPE svg PUBLIC "-//W3C//DTD SVG 1.1//EN" "http://www.w3.org/Graphics/SVG/1.1/DTD/svg11.dtd">
<svg version="1.1" xmlns="http://www.w3.org/2000/svg" xmlns:xlink="http://www.w3.org/1999/xlink" preserveAspectRatio="xMidYMid meet" viewBox="182 31.999999999999943 286 575.5517241379309" width="270" height="559.55"><defs><path d="M415.78 130.78C415.78 180.88 375.1 221.55 325 221.55C274.9 221.55 234.22 180.88 234.22 130.78C234.22 80.68 274.9 40 325 40C375.1 40 415.78 80.68 415.78 130.78Z" id="gKFqJafBM"></path><path d="M419.5 599.55L325 464.55" id="b3hpcCaNMA"></path><path d="M190 262.05L325 329.55" id="bMARoebnt"></path><path d="M460 262.5L325 330" id="b7zJvQTEc"></path><path d="M363.2 152.5L310.45 171.24L366.02 165.7C327.29 173.97 303.08 179.13 293.4 181.2C289.76 181.98 286.17 179.65 285.39 176C285.11 174.68 285.67 177.32 285.39 176C284.61 172.36 286.94 168.77 290.58 167.99C300.27 165.93 324.47 160.76 363.2 152.5Z" id="d3RhMCtXXr"></path><path d="M325 464.55L325 221.55" id="ajLnb6P3Q"></path><path d="M230.5 599.55L325 464.55" id="b6GY2Ulrv"></path><path d="M360.16 109.87L370 119.26L364.74 124.77L354.9 115.38L345.52 125.22L340.01 119.96L349.4 110.13L339.56 100.74L344.81 95.23L354.65 104.62L364.04 94.78L369.55 100.04L360.16 109.87Z" id="adE8kwcVg"></path><path d="M298.84 110L308.45 119.62L303.07 125L293.45 115.38L283.84 125L278.45 119.62L288.07 110L278.45 100.38L283.84 95L293.45 104.62L303.07 95L308.45 100.38L298.84 110Z" id="betlst6uY"></path></defs><g><g><g><use xlink:href="#gKFqJafBM" opacity="1" fill-opacity="0" stroke="#343d45" stroke-width="16" stroke-opacity="1"></use></g></g><g><use xlink:href="#b3hpcCaNMA" opacity="1" fill="#ffffff" fill-opacity="1"></use></g><g><use xlink:href="#bMARoebnt" opacity="1" fill="#ffffff" fill-opacity="1"></use><g><use xlink:href="#bMARoebnt" opacity="1" fill-opacity="0" stroke="#343d45" stroke-width="16" stroke-opacity="1"></use></g></g><g><use xlink:href="#b7zJvQTEc" opacity="1" fill="#ffffff" fill-opacity="1"></use><g><use xlink:href="#b7zJvQTEc" opacity="1" fill-opacity="0" stroke="#343d45" stroke-width="16" stroke-opacity="1"></use></g></g><g><use xlink:href="#d3RhMCtXXr" opacity="1" fill="#343d45" fill-opacity="1"></use></g><g><g><use xlink:href="#ajLnb6P3Q" opacity="1" fill-opacity="0" stroke="#343d45" stroke-width="16" stroke-opacity="1"></use></g></g><g></g><g><use xlink:href="#adE8kwcVg" opacity="1" fill="#343d45" fill-opacity="1"></use></g><g><use xlink:href="#betlst6uY" opacity="1" fill="#343d45" fill-opacity="1"></use></g></g></svg>