<?xml version="1.0" encoding="UTF-8" standalone="no"?>
<!DOCTYPE svg PUBLIC "-//W3C//DTD SVG 1.1//EN" "http://www.w3.org/Graphics/SVG/1.1/DTD/svg11.dtd">
<svg version="1.1" xmlns="http://www.w3.org/2000/svg" xmlns:xlink="http://www.w3.org/1999/xlink" preserveAspectRatio="xMidYMid meet" viewBox="0 0 640 640" width="640" height="640"><defs><path d="M415.78 130.78C415.78 180.88 375.1 221.55 325 221.55C274.9 221.55 234.22 180.88 234.22 130.78C234.22 80.68 274.9 40 325 40C375.1 40 415.78 80.68 415.78 130.78Z" id="abPxRZA04"></path><path d="M419.5 599.55L325 464.55" id="e5jJC3cac"></path><path d="M190 262.05L325 329.55" id="b2xfGC1fuN"></path><path d="M460 262.05L325 329.55" id="a3bdKjPTEu"></path><path d="M311.5 109.56C311.5 119.21 303.66 127.05 294 127.05C284.35 127.05 276.51 119.21 276.51 109.56C276.51 99.9 284.35 92.06 294 92.06C303.66 92.06 311.5 99.9 311.5 109.56Z" id="c6cu8s5wlo"></path><path d="M373.49 109.56C373.49 119.21 365.65 127.05 356 127.05C346.34 127.05 338.5 119.21 338.5 109.56C338.5 99.9 346.34 92.06 356 92.06C365.65 92.06 373.49 99.9 373.49 109.56Z" id="cdYbW1S7P"></path><path d="M358.75 160.8C362.48 160.8 365.5 163.82 365.5 167.55C365.5 168.9 365.5 166.2 365.5 167.55C365.5 171.28 362.48 174.3 358.75 174.3C343.9 174.3 306.1 174.3 291.25 174.3C287.52 174.3 284.5 171.28 284.5 167.55C284.5 166.2 284.5 168.9 284.5 167.55C284.5 163.82 287.52 160.8 291.25 160.8C306.1 160.8 343.9 160.8 358.75 160.8Z" id="dPu56S1xz"></path><path d="M325 464.55L325 221.55" id="a8xKNwxYY"></path><path d="M230.5 599.55L325 464.55" id="exxKard95"></path></defs><g><g><g><g><use xlink:href="#abPxRZA04" opacity="1" fill-opacity="0" stroke="#343d45" stroke-width="16" stroke-opacity="1"></use></g></g><g><use xlink:href="#e5jJC3cac" opacity="1" fill="#ffffff" fill-opacity="1"></use><g><use xlink:href="#e5jJC3cac" opacity="1" fill-opacity="0" stroke="#343d45" stroke-width="16" stroke-opacity="1"></use></g></g><g><use xlink:href="#b2xfGC1fuN" opacity="1" fill="#ffffff" fill-opacity="1"></use><g><use xlink:href="#b2xfGC1fuN" opacity="1" fill-opacity="0" stroke="#343d45" stroke-width="16" stroke-opacity="1"></use></g></g><g><use xlink:href="#a3bdKjPTEu" opacity="1" fill="#ffffff" fill-opacity="1"></use><g><use xlink:href="#a3bdKjPTEu" opacity="1" fill-opacity="0" stroke="#343d45" stroke-width="16" stroke-opacity="1"></use></g></g><g><use xlink:href="#c6cu8s5wlo" opacity="1" fill="#343d45" fill-opacity="1"></use></g><g><use xlink:href="#cdYbW1S7P" opacity="1" fill="#343d45" fill-opacity="1"></use></g><g><use xlink:href="#dPu56S1xz" opacity="1" fill="#343d45" fill-opacity="1"></use></g><g><g><use xlink:href="#a8xKNwxYY" opacity="1" fill-opacity="0" stroke="#343d45" stroke-width="16" stroke-opacity="1"></use></g></g><g><g><use xlink:href="#exxKard95" opacity="1" fill-opacity="0" stroke="#343d45" stroke-width="16" stroke-opacity="1"></use></g></g></g></g></svg>